<svg xmlns="http://www.w3.org/2000/svg" viewBox="0 0 24 24" fill="none">
  <defs>
    <radialGradient id="instagram-gradient" cx="30%" cy="110%">
      <stop offset="0%" style="stop-color:#fdf497;stop-opacity:1" />
      <stop offset="5%" style="stop-color:#fdf497;stop-opacity:1" />
      <stop offset="45%" style="stop-color:#fd5949;stop-opacity:1" />
      <stop offset="60%" style="stop-color:#d6249f;stop-opacity:1" />
      <stop offset="90%" style="stop-color:#285AEB;stop-opacity:1" />
    </radialGradient>
  </defs>
  <rect width="24" height="24" rx="5.4" fill="url(#instagram-gradient)"/>
  <path d="M12 7.2c1.32 0 1.48.01 2 .03.48.02.74.1.92.17.23.09.39.19.56.36.17.17.27.33.36.56.07.18.15.44.17.92.02.52.03.68.03 2s-.01 1.48-.03 2c-.02.48-.1.74-.17.92-.09.23-.19.39-.36.56-.17.17-.33.27-.56.36-.18.07-.44.15-.92.17-.52.02-.68.03-2 .03s-1.48-.01-2-.03c-.48-.02-.74-.1-.92-.17-.23-.09-.39-.19-.56-.36-.17-.17-.27-.33-.36-.56-.07-.18-.15-.44-.17-.92-.02-.52-.03-.68-.03-2s.01-1.48.03-2c.02-.48.1-.74.17-.92.09-.23.19-.39.36-.56.17-.17.33-.27.56-.36.18-.07.44-.15.92-.17.52-.02.68-.03 2-.03M12 6c-1.34 0-1.51.01-2.04.03-.53.02-.89.11-1.21.23-.33.13-.61.3-.89.58-.28.28-.45.56-.58.89-.12.32-.21.68-.23 1.21C6.01 10.49 6 10.66 6 12s.01 1.51.03 2.04c.02.53.11.89.23 1.21.13.33.3.61.58.89.28.28.56.45.89.58.32.12.68.21 1.21.23.53.02.7.03 2.04.03s1.51-.01 2.04-.03c.53-.02.89-.11 1.21-.23.33-.13.61-.3.89-.58.28-.28.45-.56.58-.89.12-.32.21-.68.23-1.21.02-.53.03-.7.03-2.04s-.01-1.51-.03-2.04c-.02-.53-.11-.89-.23-1.21-.13-.33-.3-.61-.58-.89-.28-.28-.56-.45-.89-.58-.32-.12-.68-.21-1.21-.23C13.51 6.01 13.34 6 12 6zm0 3.24c-1.42 0-2.58 1.16-2.58 2.58S10.58 14.4 12 14.4s2.58-1.16 2.58-2.58S13.42 9.24 12 9.24zm0 4.26c-.93 0-1.68-.75-1.68-1.68S11.07 10.14 12 10.14s1.68.75 1.68 1.68-.75 1.68-1.68 1.68zm3.29-5.4c0 .33-.27.6-.6.6s-.6-.27-.6-.6.27-.6.6-.6.6.27.6.6z" fill="white"/>
</svg>
